<svg version="1.1" xmlns="http://www.w3.org/2000/svg" xmlns:xlink="http://www.w3.org/1999/xlink" width="251.3825" height="104" viewBox="0,0,251.3825,104"><g transform="translate(-114.30875,-128)"><g data-paper-data="{&quot;isPaintingLayer&quot;:true}" fill-rule="nonzero" stroke-linecap="butt" stroke-linejoin="miter" stroke-miterlimit="10" stroke-dasharray="" stroke-dashoffset="0" style="mix-blend-mode: normal"><path d="M114.30875,232v-104h251.3825v104z" fill="none" stroke="none" stroke-width="0"/><path d="M218.875,197.25v-24.5h24.5v24.5z" fill="#ffffff" stroke="none" stroke-width="0"/><path d="M243.375,186.375v-12.75h7.51109v12.75z" fill="none" stroke="#ffffff" stroke-width="2.6"/><path d="M250.88609,186.375v-12.75h7.51109v12.75z" fill="none" stroke="#ffffff" stroke-width="2.6"/><path d="M258.39718,186.375v-12.75h7.51109v12.75z" fill="none" stroke="#ffffff" stroke-width="2.6"/><path d="M265.90827,186.375v-12.75h7.51109v12.75z" fill="none" stroke="#ffffff" stroke-width="2.6"/><path d="M273.41936,186.375v-12.75h7.51109v12.75z" fill="none" stroke="#ffffff" stroke-width="2.6"/><path d="M280.93045,186.375v-12.75h7.51109v12.75z" fill="none" stroke="#ffffff" stroke-width="2.6"/><path d="M288.44154,186.375v-12.75h7.51109v12.75z" fill="none" stroke="#ffffff" stroke-width="2.6"/><path d="M295.95263,186.375v-12.75h7.51109v12.75z" fill="none" stroke="#ffffff" stroke-width="2.6"/><path d="M303.72445,186.375v-12.75h7.51109v12.75z" fill="none" stroke="#ffffff" stroke-width="2.6"/><path d="M310.97481,186.375v-12.75h7.51109v12.75z" fill="none" stroke="#ffffff" stroke-width="2.6"/><path d="M317.23557,198.5v-25.5h5.92895v25.5z" fill="#ffffff" stroke="none" stroke-width="0"/></g></g></svg>
