<svg version="1.1" xmlns="http://www.w3.org/2000/svg" xmlns:xlink="http://www.w3.org/1999/xlink" width="279" height="243.84146" viewBox="0,0,279,243.84146"><defs><linearGradient x1="228.26247" y1="152.66538" x2="228.26247" y2="232.57336" gradientUnits="userSpaceOnUse" id="color-1"><stop offset="0" stop-color="#211138"/><stop offset="1" stop-color="#90256e"/></linearGradient><linearGradient x1="228.26247" y1="152.66538" x2="228.26247" y2="232.57336" gradientUnits="userSpaceOnUse" id="color-2"><stop offset="0" stop-color="#020103"/><stop offset="1" stop-color="#5d1847"/></linearGradient><linearGradient x1="267.04225" y1="131.47245" x2="267.04225" y2="155.9995" gradientUnits="userSpaceOnUse" id="color-3"><stop offset="0" stop-color="#211138"/><stop offset="1" stop-color="#90256e"/></linearGradient><linearGradient x1="267.04225" y1="131.47245" x2="267.04225" y2="155.9995" gradientUnits="userSpaceOnUse" id="color-4"><stop offset="0" stop-color="#020103"/><stop offset="1" stop-color="#5d1847"/></linearGradient><linearGradient x1="254.12511" y1="127.42663" x2="254.12511" y2="151.09505" gradientUnits="userSpaceOnUse" id="color-5"><stop offset="0" stop-color="#211138"/><stop offset="1" stop-color="#90256e"/></linearGradient><linearGradient x1="254.12511" y1="127.42663" x2="254.12511" y2="151.09505" gradientUnits="userSpaceOnUse" id="color-6"><stop offset="0" stop-color="#020103"/><stop offset="1" stop-color="#5d1847"/></linearGradient></defs><g transform="translate(-100.5,-58.07927)"><g data-paper-data="{&quot;isPaintingLayer&quot;:true}" fill-rule="nonzero" stroke-linejoin="miter" stroke-miterlimit="10" stroke-dasharray="" stroke-dashoffset="0" style="mix-blend-mode: normal"><path d="M100.5,301.92073v-243.84146h279v243.84146z" fill="none" stroke="#000000" stroke-width="0" stroke-linecap="butt"/><g stroke-width="3.5" stroke-linecap="round"><path d="M208.7673,179.45934c3.31445,-6.85307 9.68018,-15.5295 14.73724,-26.51723c0.89733,-1.94968 -0.68026,6.8883 -0.78053,11.31252c-0.10026,4.42422 0.4061,5.21062 0.4061,5.21062c0,0 13.08922,-9.04986 19.58023,-12.3515c10.43981,-5.3102 11.3366,-1.18776 11.72653,0.89743c0.63359,3.38826 -1.25064,6.59312 -0.80521,11.31723c0.3676,3.89864 2.24283,23.3584 1.63501,39.25071c-0.74402,3.18894 -2.20402,4.22293 -4.80452,5.61671c-2.6005,1.39378 -35.74351,17.39235 -35.74351,17.39235c0,0 -6.4323,1.86065 -8.48147,0.46786c-2.04918,-1.3928 -2.30354,-2.11261 -1.9665,-4.35107c0.33703,-2.23845 0.2031,-10.64957 5.00288,-13.75276c4.79978,-3.10319 29.95052,-11.86797 29.93513,-12.61866c-0.206,-10.0427 -0.38908,-8.70423 -0.57858,-18.37241c-0.03057,-1.55986 -0.63797,-4.78307 -2.22823,-3.9818c-1.59025,0.80127 -20.08826,16.29737 -20.08826,16.29737c0,0 -3.94485,3.3648 -8.03284,3.81969c-3.84525,0.42788 -7.51016,-4.12774 -7.11319,-7.08785c0.21589,-1.60985 7.59972,-12.54922 7.59972,-12.54922z" fill="url(#color-1)" stroke="url(#color-2)"/><path d="M271.01471,131.69006c0.51765,-0.94289 8.0369,1.41086 7.84362,2.61717c-0.51053,3.18634 -3.08102,8.14949 -6.06613,12.39709c-2.98511,4.24761 -4.93651,6.36961 -8.95392,8.97541c-1.89001,1.2259 -8.19456,-1.19942 -8.61361,-5.11436c-0.19145,-1.78862 12.41243,-12.72308 15.79004,-18.87531z" fill="url(#color-3)" stroke="url(#color-4)"/><path d="M240.72236,150.67413c-1.35207,-2.87084 2.13682,-8.38579 4.94202,-13.26845c2.80519,-4.88266 6.04692,-7.75517 6.71377,-8.33105c1.63274,-1.41004 4.30555,-1.44262 8.14501,-1.62986c3.83947,-0.18724 7.55813,1.13259 7.29161,1.33014c-1.16446,0.8631 -2.90598,2.61753 -9.5418,10.04548c-3.6023,4.03231 -8.49957,9.91705 -9.48623,11.81035c-0.35351,0.67835 -7.82878,0.5436 -8.06437,0.04338z" fill="url(#color-5)" stroke="url(#color-6)"/></g></g></g></svg>
