<svg version="1.1" xmlns="http://www.w3.org/2000/svg" xmlns:xlink="http://www.w3.org/1999/xlink" width="274" height="214" viewBox="0,0,274,214"><g transform="translate(-103,-73)"><g data-paper-data="{&quot;isPaintingLayer&quot;:true}" fill-rule="nonzero" stroke-linejoin="miter" stroke-miterlimit="10" stroke-dasharray="" stroke-dashoffset="0" style="mix-blend-mode: normal"><path d="M103,287v-214h274v214z" fill="none" stroke="none" stroke-width="NaN" stroke-linecap="butt"/><path d="M259.26065,234.85237l-37.2851,-3.93741l4.04562,-38.30974l37.38392,4.05958c0,0 2.70377,0.47692 3.42528,1.47901c1.00636,1.39771 1.16867,3.74543 1.16867,3.74543l-3.01554,28.55551c0,0 -0.51145,2.37931 -2.05254,3.56621c-1.54109,1.18691 -3.67031,0.84141 -3.67031,0.84141z" fill="#e7e7e7" stroke="#000000" stroke-width="5" stroke-linecap="butt"/><path d="M256.59633,225.98759c-1.09468,0.8431 -2.60714,0.59769 -2.60714,0.59769l-26.48465,-2.79685l2.87372,-27.21248l26.55485,2.88363c0,0 1.92056,0.33877 2.43307,1.05058c0.71485,0.99283 0.83014,2.66048 0.83014,2.66048l-2.14203,20.28378c0,0 -0.3633,1.69008 -1.45797,2.53318z" fill="#ffffff" stroke="#000000" stroke-width="0" stroke-linecap="butt"/><path d="M213.73067,176.78095c17.08574,1.8043 29.40384,17.78008 27.51325,35.68291c-1.89059,17.90282 -17.27394,30.95325 -34.35968,29.14895c-17.08574,-1.8043 -29.40385,-17.78009 -27.51326,-35.68291c1.89059,-17.90283 17.27394,-30.95325 34.35969,-29.14895z" fill="#e7e7e7" stroke="#000000" stroke-width="5" stroke-linecap="butt"/><path d="M266.12354,227.87938c0,0 6.16795,0.64931 8.58531,1.53903c2.01075,0.74007 4.92493,3.43348 4.92493,3.43348" fill="none" stroke="#000000" stroke-width="5" stroke-linecap="round"/><path d="M268.26382,205.26053c0,0 5.91153,1.18684 8.18202,2.01497c2.97708,1.08585 5.13349,4.74894 5.13349,4.74894" fill="none" stroke="#000000" stroke-width="5" stroke-linecap="round"/><path d="M212.76835,181.13252c13.28036,1.40244 22.85494,13.82005 21.38542,27.73551c-1.46951,13.91545 -13.42664,24.05925 -26.707,22.65681c-13.28036,-1.40244 -22.85495,-13.82006 -21.38543,-27.73551c1.46951,-13.91546 13.42663,-24.05926 26.70701,-22.65682z" fill="#ffffff" stroke="#000000" stroke-width="0" stroke-linecap="butt"/><path d="M215.85031,222.29461c-2.05962,-0.2175 -3.55294,-2.06347 -3.33544,-4.12308c0.2175,-2.05962 2.06347,-3.55294 4.12308,-3.33544c2.05962,0.2175 3.55294,2.06347 3.33544,4.12308c-0.2175,2.05962 -2.06347,3.55294 -4.12308,3.33544z" fill="#000000" stroke="none" stroke-width="5" stroke-linecap="butt"/><path d="M218.6241,192.21961c-2.05962,-0.2175 -3.55294,-2.06347 -3.33544,-4.12308c0.2175,-2.05962 2.06347,-3.55294 4.12308,-3.33544c2.05962,0.2175 3.55294,2.06347 3.33544,4.12308c-0.2175,2.05962 -2.06347,3.55294 -4.12308,3.33544z" fill="#000000" stroke="none" stroke-width="5" stroke-linecap="butt"/><path d="M222.86087,211.45418l1.53328,-14.51927" fill="none" stroke="#000000" stroke-width="3.5" stroke-linecap="round"/></g></g></svg>
