<svg version="1.1" xmlns="http://www.w3.org/2000/svg" xmlns:xlink="http://www.w3.org/1999/xlink" width="274" height="214" viewBox="0,0,274,214"><g transform="translate(-103,-73)"><g data-paper-data="{&quot;isPaintingLayer&quot;:true}" fill-rule="nonzero" stroke-linejoin="miter" stroke-miterlimit="10" stroke-dasharray="" stroke-dashoffset="0" style="mix-blend-mode: normal"><path d="M103,287v-214h274v214z" fill="none" stroke="none" stroke-width="NaN" stroke-linecap="butt"/><path d="M227.28255,217.91883c0,0 6.59388,4.00368 6.55458,5.98523c-0.04359,2.19803 -5.80458,3.62098 -5.80458,3.62098" fill="none" stroke="#000000" stroke-width="5" stroke-linecap="round"/><path d="M250.0011,217.67188c0,0 1.66667,5.23662 1.66667,7.54688c0,1.96153 -1.66667,5.44045 -1.66667,5.44045" fill="none" stroke="#000000" stroke-width="5" stroke-linecap="round"/><path d="M219.62741,212.37424v-37.49242h38.52276l-0.11111,37.60353c0,0 -0.19034,2.7389 -1.11111,3.56166c-1.28429,1.14758 -3.60199,1.55555 -3.60199,1.55555h-28.71429c0,0 -2.41986,-0.25875 -3.76205,-1.66667c-1.34219,-1.40792 -1.22221,-3.56165 -1.22221,-3.56165z" fill="#e7e7e7" stroke="#000000" stroke-width="5" stroke-linecap="butt"/><path d="M228.16337,208.79366c-0.9534,-1.00009 -0.86818,-2.52995 -0.86818,-2.52995v-26.63192h27.3638l-0.07892,26.71084c0,0 -0.1352,1.94552 -0.78925,2.52995c-0.91227,0.81516 -2.55859,1.10495 -2.55859,1.10495h-20.39657c0,0 -1.71889,-0.1838 -2.67229,-1.18388z" fill="#ffffff" stroke="#000000" stroke-width="0" stroke-linecap="butt"/><path d="M272.5962,160.99741c0,17.18075 -14.5938,31.10849 -32.59618,31.10849c-18.00237,0 -32.59618,-13.92774 -32.59618,-31.10849c0,-17.18075 14.59381,-31.1085 32.59618,-31.1085c18.00238,0 32.59618,13.92774 32.59618,31.1085z" fill="#e7e7e7" stroke="#000000" stroke-width="5" stroke-linecap="butt"/><path d="M268.16763,160.49741c0,13.35421 -11.34343,24.17992 -25.33627,24.17992c-13.99283,0 -25.33626,-10.82572 -25.33626,-24.17992c0,-13.35421 11.34344,-24.17993 25.33626,-24.17993c13.99284,0 25.33627,10.82571 25.33627,24.17993z" fill="#ffffff" stroke="#000000" stroke-width="0" stroke-linecap="butt"/><path d="M227.55682,167.88516c0,-2.07107 1.67893,-3.75 3.75,-3.75c2.07107,0 3.75,1.67893 3.75,3.75c0,2.07107 -1.67893,3.75 -3.75,3.75c-2.07107,0 -3.75,-1.67893 -3.75,-3.75z" fill="#000000" stroke="none" stroke-width="5" stroke-linecap="butt"/><path d="M257.75682,167.48518c0,-2.07107 1.67893,-3.75 3.75,-3.75c2.07107,0 3.75,1.67893 3.75,3.75c0,2.07107 -1.67893,3.75 -3.75,3.75c-2.07107,0 -3.75,-1.67893 -3.75,-3.75z" fill="#000000" stroke="none" stroke-width="5" stroke-linecap="butt"/><path d="M238.7068,174.08519h14.6" fill="none" stroke="#000000" stroke-width="3.5" stroke-linecap="round"/><path d="M219.62741,211.8262v-37.49242h38.52276l-0.11111,37.60353c0,0 -0.19034,2.7389 -1.11111,3.56166c-1.28429,1.14758 -3.60199,1.55555 -3.60199,1.55555h-28.71429c0,0 -2.41986,-0.25875 -3.76205,-1.66667c-1.34219,-1.40792 -1.22221,-3.56165 -1.22221,-3.56165z" fill="#e7e7e7" stroke="#000000" stroke-width="5" stroke-linecap="butt"/><path d="M228.16337,208.24563c-0.9534,-1.00009 -0.86818,-2.52995 -0.86818,-2.52995v-26.63192h27.3638l-0.07892,26.71084c0,0 -0.1352,1.94552 -0.78925,2.52995c-0.91227,0.81516 -2.55859,1.10495 -2.55859,1.10495h-20.39657c0,0 -1.71889,-0.1838 -2.67229,-1.18388z" fill="#ffffff" stroke="#000000" stroke-width="0" stroke-linecap="butt"/><path d="M272.5962,160.4494c0,17.18075 -14.5938,31.10849 -32.59618,31.10849c-18.00237,0 -32.59618,-13.92774 -32.59618,-31.10849c0,-17.18075 14.59381,-31.1085 32.59618,-31.1085c18.00238,0 32.59618,13.92774 32.59618,31.1085z" fill="#e7e7e7" stroke="#000000" stroke-width="5" stroke-linecap="butt"/><path d="M268.16763,159.9494c0,13.35421 -11.34343,24.17992 -25.33627,24.17992c-13.99283,0 -25.33626,-10.82572 -25.33626,-24.17992c0,-13.35421 11.34344,-24.17993 25.33626,-24.17993c13.99284,0 25.33627,10.82571 25.33627,24.17993z" fill="#ffffff" stroke="#000000" stroke-width="0" stroke-linecap="butt"/><path d="M227.55682,167.33712c0,-2.07107 1.67893,-3.75 3.75,-3.75c2.07107,0 3.75,1.67893 3.75,3.75c0,2.07107 -1.67893,3.75 -3.75,3.75c-2.07107,0 -3.75,-1.67893 -3.75,-3.75z" fill="#000000" stroke="none" stroke-width="5" stroke-linecap="butt"/><path d="M257.75682,166.93714c0,-2.07107 1.67893,-3.75 3.75,-3.75c2.07107,0 3.75,1.67893 3.75,3.75c0,2.07107 -1.67893,3.75 -3.75,3.75c-2.07107,0 -3.75,-1.67893 -3.75,-3.75z" data-paper-data="{&quot;index&quot;:null}" fill="#000000" stroke="none" stroke-width="5" stroke-linecap="butt"/><path d="M238.7068,173.53715h14.6" fill="none" stroke="#000000" stroke-width="3.5" stroke-linecap="round"/></g></g></svg>
